<svg xmlns="http://www.w3.org/2000/svg" viewBox="0 0 353.95 352.1">
    <defs>
        <style>.cls-1{fill:#ede6e2;}.cls-2{fill:#dfd5e7;}.cls-3{fill:#f0c9d7;}.cls-4{fill:#fff;}.cls-5{fill:#ffe2ec;}.cls-6{fill:#ceaca1;}.cls-7{fill:#9d8ab7;}.cls-8{fill:#a48ab8;}.cls-9{fill:#ba867b;}</style>
    </defs>
    <g id="圖層_2" data-name="圖層 2">
        <g id="圖層_1-2" data-name="圖層 1">
            <path class="cls-1" d="M98,55.1s-9-6-21-24S54.45-3.4,45.45.6c-5,3-9,12,8,32-4,1-6,0-10-1s-10-2-12,3,2,20,37,14l16,16,16,4,2-7Z" />
            <path class="cls-1" d="M253.52,55.1s9-6,21-24S297-3.4,306,.6c5,3,9,12-8,32,4,1,6,0,10-1s10-2,12,3-2,20-37,14l-16,16-16,4-2-7Z" />
            <circle class="cls-2" cx="174.95" cy="193.1" r="159" />
            <path class="cls-2" d="M59,86.1s-14-1-24-11-22-19-31-11-1,31,8,36,13,8,31,7c12,0,40-9,40-9Z" />
            <path class="cls-2" d="M295,88.1s14-1,24-11,22-19,31-11,1,31-8,36-13,8-31,7c-12,0-40-9-40-9Z" />
            <path class="cls-3" d="M312,119.1s20,53,5,68c-1.16,1.73-6,5.46-9.84,8.3a7.47,7.47,0,0,1-9.65-.68l-10.18-9.93a12.14,12.14,0,0,1-3.67-8.4L282,110.1Z" />
            <polygon class="cls-4" points="306.92 198.3 301.95 195.1 296.97 198.3 296.95 198.3 296.95 215.1 306.95 215.1 306.95 198.3 306.92 198.3" />
            <path class="cls-5" d="M281,53.1s-20-32-28-38-18-4-26,8-6,15-6,16C216,40.1,196.83,51,198.89,62,200,66.18,209,75.1,247,84.1c7,2,18.29,2,18.29,2Z" />
            <path class="cls-5" d="M291,64.1s25,11,34,18,18,13,11,21-18.5,16-21.25,17.47S313,129.1,305,133.1s-17,13-31,4c-8-5-9-32-9-40S265,68.1,291,64.1Z" />
            <path class="cls-4" d="M232,24.1s-3-1.94,0-4.47,8-7.53,11-4.53a76.15,76.15,0,0,1,7,9s2,1-2,4a45.74,45.74,0,0,1-6,4s-2,3-4,0S232,24.1,232,24.1Z" />
            <path class="cls-4" d="M247,43.1a2.68,2.68,0,0,1,0-3.94,71.64,71.64,0,0,1,7.23-5.72,2.13,2.13,0,0,1,3.77,0c2,2.66,13.41,17.66,13.41,17.66L258.71,58Z" />
            <circle class="cls-6" cx="272.95" cy="76.1" r="25" />
            <path class="cls-7" d="M275,70.1s-5-9-8-8-4,5.24,0,12.12c-4,.77-12,4.88-10,7.88s5,2,13-2c2,5,5,10,9,9s2.82-5-1.59-13c3.17-1,11.59-5,10.59-8S286,63.1,275,70.1Z" />
            <ellipse class="cls-8" cx="120.59" cy="91.54" rx="7.22" ry="6.13" transform="translate(-29.61 72.56) rotate(-30)" />
            <ellipse class="cls-9" cx="125.2" cy="119.71" rx="13.98" ry="9.71" transform="translate(-43.08 78.64) rotate(-30)" />
            <ellipse class="cls-8" cx="223.59" cy="89.54" rx="6.13" ry="7.22" transform="translate(34.25 238.4) rotate(-60)" />
            <ellipse class="cls-9" cx="225.2" cy="119.71" rx="9.71" ry="13.98" transform="translate(8.93 254.88) rotate(-60)" />
            <path class="cls-9" d="M180.4,114.69H168.78a1.22,1.22,0,0,0-1.15,1.61l1,3a3.32,3.32,0,0,0,1.85,2l2.71,1.16a3.1,3.1,0,0,0,.4.13l1,16.46,1-16.46a2.67,2.67,0,0,0,.4-.13l2.72-1.16a3.35,3.35,0,0,0,1.85-2l1-3A1.22,1.22,0,0,0,180.4,114.69Z" />
        </g>
    </g>
</svg>